<?xml version="1.0" standalone="no"?>
<!DOCTYPE svg PUBLIC "-//W3C//DTD SVG 20010904//EN"
 "http://www.w3.org/TR/2001/REC-SVG-20010904/DTD/svg10.dtd">
<svg version="1.0" xmlns="http://www.w3.org/2000/svg"
 width="227.000000pt" height="227.000000pt" viewBox="0 0 227.000000 227.000000"
 preserveAspectRatio="xMidYMid meet">
<metadata>
Created by potrace 1.14, written by Peter Selinger 2001-2017
</metadata>
<g transform="translate(0.000000,227.000000) scale(0.100000,-0.100000)"
fill="#000000" stroke="none">
<path d="M0 1135 l0 -1135 1135 0 1135 0 0 1135 0 1135 -1135 0 -1135 0 0
-1135z m1044 751 c70 -24 131 -47 136 -52 5 -5 11 -93 12 -194 l3 -185 140 0
140 0 3 67 c3 64 2 67 -27 84 -83 49 -72 166 19 204 63 26 150 -38 150 -110 0
-27 -9 -42 -45 -77 l-45 -43 0 -90 c0 -107 15 -99 -190 -103 l-145 -2 0 -65 0
-65 253 -3 252 -2 39 40 c33 34 44 40 80 40 36 0 49 -6 77 -34 28 -28 34 -42
34 -76 0 -58 -50 -110 -105 -110 -44 0 -88 24 -106 57 l-13 23 -255 -2 -256
-3 0 -65 0 -65 187 -3 c205 -3 189 2 246 -72 16 -19 27 -24 60 -22 54 4 99
-20 119 -63 14 -30 15 -40 3 -75 -27 -81 -115 -106 -180 -51 -34 28 -35 31
-33 93 1 59 -1 69 -28 102 l-30 36 -164 0 c-128 0 -165 -3 -174 -14 -7 -9 -11
-38 -9 -73 l3 -58 114 -3 c64 -1 121 -8 128 -14 9 -7 13 -36 13 -89 0 -69 2
-78 20 -84 29 -9 60 -59 60 -97 0 -79 -80 -137 -150 -108 -74 30 -94 124 -39
179 17 17 35 31 40 31 6 0 9 27 7 63 l-3 62 -75 3 c-129 5 -120 20 -120 -182
0 -127 -3 -176 -12 -183 -7 -6 -71 -30 -141 -53 -150 -50 -110 -59 -342 78
l-150 90 -3 140 c-3 161 6 145 -117 211 -33 18 -66 38 -73 43 -20 17 -13 378
8 389 8 5 51 30 95 57 l80 48 5 143 5 144 175 103 c96 56 180 103 186 103 6 1
68 -19 138 -43z"/>
<path d="M853 1840 c-32 -19 -55 -39 -58 -53 -3 -12 -6 -74 -8 -137 -2 -108
-3 -115 -22 -115 -19 0 -20 8 -23 113 -2 73 -6 112 -14 112 -25 0 -120 -64
-129 -87 -11 -30 -12 -213 -1 -231 8 -11 84 -59 144 -91 24 -12 30 -10 89 30
35 23 67 47 71 53 4 6 8 50 8 99 0 86 0 87 25 87 l25 0 0 -110 0 -109 -72 -47
c-89 -57 -98 -68 -98 -115 0 -55 7 -66 66 -100 52 -29 69 -58 44 -74 -9 -6
-55 16 -115 54 -17 11 -28 8 -79 -23 -45 -27 -63 -33 -73 -25 -24 20 -14 36
45 71 l57 34 3 54 c3 61 9 54 -101 117 -33 18 -66 33 -75 32 -10 0 -48 -19
-87 -43 l-70 -42 -3 -52 c-2 -29 0 -52 3 -52 4 0 38 18 77 41 38 22 71 39 72
37 2 -1 8 -12 14 -24 12 -22 10 -24 -88 -77 -82 -44 -80 -42 -80 -121 l0 -71
76 -42 c42 -24 82 -43 88 -43 6 0 41 20 78 45 74 50 83 52 92 29 11 -28 7 -32
-63 -78 -38 -26 -72 -53 -75 -62 -10 -25 -7 -200 3 -228 10 -26 136 -106 167
-106 9 0 31 10 48 23 17 12 59 40 94 61 51 30 66 35 77 26 8 -7 15 -18 15 -24
0 -6 -39 -35 -86 -65 -47 -29 -84 -57 -82 -63 2 -5 20 -19 41 -31 l37 -21 88
29 c48 16 99 35 115 42 l27 14 0 209 c0 195 -1 210 -18 210 -10 0 -26 -6 -37
-14 -30 -21 -201 -125 -269 -163 -45 -26 -62 -31 -72 -22 -8 6 -14 17 -14 23
0 9 186 129 225 145 5 2 40 24 78 48 37 23 72 43 77 43 26 0 30 53 30 434 0
366 -1 396 -17 405 -20 10 -200 71 -211 71 -4 0 -31 -14 -59 -30z"/>
<path d="M1467 1742 c-35 -38 -8 -92 46 -92 44 0 64 62 29 93 -24 22 -55 21
-75 -1z"/>
<path d="M1793 1270 c-46 -19 -37 -94 13 -106 55 -14 89 68 42 100 -25 18 -25
18 -55 6z"/>
<path d="M1667 892 c-21 -23 -22 -66 -2 -82 22 -18 66 -15 82 6 19 25 16 51
-7 74 -25 25 -52 26 -73 2z"/>
<path d="M1373 594 c-15 -24 -15 -29 -2 -53 17 -31 68 -41 89 -16 16 19 16 60
0 80 -20 25 -67 19 -87 -11z"/>
</g>
</svg>
